<mxfile host="65bd71144e">
    <diagram id="COzKJZZQb2DtY6U1lg2Z" name="Page-1">
        <mxGraphModel dx="1586" dy="978" grid="1" gridSize="10" guides="1" tooltips="1" connect="1" arrows="1" fold="1" page="1" pageScale="1" pageWidth="827" pageHeight="1169" math="0" shadow="0">
            <root>
                <mxCell id="0"/>
                <mxCell id="1" parent="0"/>
                <mxCell id="71" style="edgeStyle=orthogonalEdgeStyle;html=1;entryX=0;entryY=0.5;entryDx=0;entryDy=0;entryPerimeter=0;" edge="1" parent="1" source="zQZGqaTvdZe9Iy5OYycm-5" target="68">
                    <mxGeometry relative="1" as="geometry"/>
                </mxCell>
                <UserObject label="" lucidchartObjectId="LuR-U8kyJd_m" id="zQZGqaTvdZe9Iy5OYycm-5">
                    <mxCell style="html=1;overflow=block;blockSpacing=1;whiteSpace=wrap;shape=mxgraph.aws4.users;labelPosition=center;verticalLabelPosition=bottom;align=center;verticalAlign=top;pointerEvents=1;fontSize=13;spacing=0;strokeOpacity=100;fillOpacity=100;fillColor=#666666;strokeWidth=1.5;strokeColor=none;" parent="1" vertex="1">
                        <mxGeometry x="20" y="451" width="57" height="57" as="geometry"/>
                    </mxCell>
                </UserObject>
                <UserObject label="&lt;div style=&quot;display: flex ; justify-content: center ; text-align: center ; align-items: baseline ; font-size: 0 ; line-height: 1.25 ; margin-top: -2px&quot;&gt;&lt;span&gt;&lt;span style=&quot;font-size: 13.3px ; color: #666666 ; font-weight: bold&quot;&gt;VPC&lt;br&gt;&lt;/span&gt;&lt;/span&gt;&lt;/div&gt;&lt;div style=&quot;display: flex ; justify-content: flex-start ; text-align: left ; align-items: baseline ; font-size: 0 ; line-height: 1.25 ; margin-top: -2px&quot;&gt;&lt;span&gt;&lt;span style=&quot;font-size: 13px ; color: #666666&quot;&gt;&lt;span style=&quot;font-size: 11.7px ; color: #666666&quot;&gt;10.0.0.0/16&lt;/span&gt;&lt;/span&gt;&lt;/span&gt;&lt;/div&gt;" lucidchartObjectId="LuR-KLFWu2TW" id="zQZGqaTvdZe9Iy5OYycm-6">
                    <mxCell style="html=1;overflow=block;blockSpacing=1;whiteSpace=wrap;shape=mxgraph.aws4.group;grIcon=mxgraph.aws4.group_vpc;verticalAlign=top;align=left;grIconSize=40;spacingLeft=45;spacingTop=5;fontColor=#2C8723;container=1;pointerEvents=0;collapsible=0;recursiveResize=0;fontSize=13;spacing=0;strokeColor=#248814;strokeOpacity=100;fillOpacity=0;fillColor=#000000;strokeWidth=1.5;" parent="1" vertex="1">
                        <mxGeometry x="310" y="225" width="1020" height="695" as="geometry"/>
                    </mxCell>
                </UserObject>
                <UserObject label="AWS Cloud" lucidchartObjectId="LuR-FV8~V6.N" id="zQZGqaTvdZe9Iy5OYycm-7">
                    <mxCell style="html=1;overflow=block;blockSpacing=1;whiteSpace=wrap;shape=mxgraph.aws4.group;grIcon=mxgraph.aws4.group_aws_cloud_alt;verticalAlign=top;align=left;grIconSize=40;spacingLeft=45;spacingTop=5;container=1;pointerEvents=0;collapsible=0;recursiveResize=0;fontSize=13.3;fontColor=#666666;fontStyle=1;spacing=0;strokeColor=#232f3e;strokeOpacity=100;fillOpacity=0;fillColor=#000000;strokeWidth=1.5;" parent="1" vertex="1">
                        <mxGeometry x="100" y="180" width="1400" height="800" as="geometry"/>
                    </mxCell>
                </UserObject>
                <mxCell id="27" value="private subnet" style="points=[[0,0],[0.25,0],[0.5,0],[0.75,0],[1,0],[1,0.25],[1,0.5],[1,0.75],[1,1],[0.75,1],[0.5,1],[0.25,1],[0,1],[0,0.75],[0,0.5],[0,0.25]];outlineConnect=0;gradientColor=none;html=1;whiteSpace=wrap;fontSize=12;fontStyle=0;container=1;pointerEvents=0;collapsible=0;recursiveResize=0;shape=mxgraph.aws4.group;grIcon=mxgraph.aws4.group_security_group;grStroke=0;strokeColor=#147EBA;fillColor=#E6F2F8;verticalAlign=top;align=left;spacingLeft=30;fontColor=#147EBA;dashed=0;" parent="zQZGqaTvdZe9Iy5OYycm-7" vertex="1">
                    <mxGeometry x="774.8520466177667" y="95.27790697674413" width="335.2179533822331" height="267.4418604651163" as="geometry"/>
                </mxCell>
                <mxCell id="31" style="edgeStyle=elbowEdgeStyle;html=1;exitX=1;exitY=0.5;exitDx=0;exitDy=0;exitPerimeter=0;entryX=0.633;entryY=0.25;entryDx=0;entryDy=0;entryPerimeter=0;" parent="zQZGqaTvdZe9Iy5OYycm-7" source="6" target="zQZGqaTvdZe9Iy5OYycm-12" edge="1">
                    <mxGeometry relative="1" as="geometry"/>
                </mxCell>
                <mxCell id="32" style="edgeStyle=elbowEdgeStyle;html=1;exitX=1;exitY=0.5;exitDx=0;exitDy=0;exitPerimeter=0;" parent="zQZGqaTvdZe9Iy5OYycm-7" source="6" edge="1">
                    <mxGeometry relative="1" as="geometry">
                        <mxPoint x="779" y="550" as="targetPoint"/>
                    </mxGeometry>
                </mxCell>
                <mxCell id="6" value="" style="sketch=0;points=[[0,0,0],[0.25,0,0],[0.5,0,0],[0.75,0,0],[1,0,0],[0,1,0],[0.25,1,0],[0.5,1,0],[0.75,1,0],[1,1,0],[0,0.25,0],[0,0.5,0],[0,0.75,0],[1,0.25,0],[1,0.5,0],[1,0.75,0]];outlineConnect=0;fontColor=#232F3E;gradientColor=#F78E04;gradientDirection=north;fillColor=#D05C17;strokeColor=#ffffff;dashed=0;verticalLabelPosition=bottom;verticalAlign=top;align=center;html=1;fontSize=12;fontStyle=0;aspect=fixed;shape=mxgraph.aws4.resourceIcon;resIcon=mxgraph.aws4.elastic_load_balancing;" parent="zQZGqaTvdZe9Iy5OYycm-7" vertex="1">
                    <mxGeometry x="419" y="303" width="117" height="117" as="geometry"/>
                </mxCell>
                <UserObject label="ALB" lucidchartObjectId="dBT-.tcLRFno" id="11">
                    <mxCell style="html=1;overflow=block;blockSpacing=1;whiteSpace=wrap;fontSize=13;spacing=3.8;strokeOpacity=100;fillOpacity=100;fillColor=#ffffff;strokeWidth=0.8;strokeColor=none;" parent="zQZGqaTvdZe9Iy5OYycm-7" vertex="1">
                        <mxGeometry x="440.9233004926108" y="440" width="73.15270935960592" height="34" as="geometry"/>
                    </mxCell>
                </UserObject>
                <mxCell id="zQZGqaTvdZe9Iy5OYycm-22" value="" style="group;dropTarget=0;pointerEvents=0;" parent="zQZGqaTvdZe9Iy5OYycm-7" vertex="1">
                    <mxGeometry x="210" y="420" width="904.54" height="300" as="geometry"/>
                </mxCell>
                <UserObject label="" lucidchartObjectId=".QR-Pv~3ltEh" id="zQZGqaTvdZe9Iy5OYycm-23">
                    <mxCell style="html=1;overflow=block;blockSpacing=1;whiteSpace=wrap;verticalAlign=top;dashed=1;dashPattern=5 5;fontColor=#0E82B8;strokeOpacity=100;strokeColor=#147eba;container=1;pointerEvents=0;collapsible=0;recursiveResize=0;fontSize=13;align=center;spacing=0;fillOpacity=0;fillColor=#000000;strokeWidth=1.5;" parent="zQZGqaTvdZe9Iy5OYycm-22" vertex="1">
                        <mxGeometry x="102.4113258353708" width="802.1286741646292" height="300" as="geometry"/>
                    </mxCell>
                </UserObject>
                <mxCell id="20" value="private subnet" style="points=[[0,0],[0.25,0],[0.5,0],[0.75,0],[1,0],[1,0.25],[1,0.5],[1,0.75],[1,1],[0.75,1],[0.5,1],[0.25,1],[0,1],[0,0.75],[0,0.5],[0,0.25]];outlineConnect=0;gradientColor=none;html=1;whiteSpace=wrap;fontSize=12;fontStyle=0;container=1;pointerEvents=0;collapsible=0;recursiveResize=0;shape=mxgraph.aws4.group;grIcon=mxgraph.aws4.group_security_group;grStroke=0;strokeColor=#147EBA;fillColor=#E6F2F8;verticalAlign=top;align=left;spacingLeft=30;fontColor=#147EBA;dashed=0;" parent="zQZGqaTvdZe9Iy5OYycm-23" vertex="1">
                    <mxGeometry x="466.910720782396" y="11.627906976744187" width="335.2179533822331" height="267.4418604651163" as="geometry"/>
                </mxCell>
                <UserObject label="Availability Zone C" lucidchartObjectId=".QR-HcqmJM00" id="zQZGqaTvdZe9Iy5OYycm-24">
                    <mxCell style="html=1;overflow=block;blockSpacing=1;whiteSpace=wrap;fontSize=13.3;fontColor=#666666;fontStyle=1;align=center;spacing=3.8;verticalAlign=bottom;strokeOpacity=0;fillOpacity=0;rotation=-90;fillColor=#ffffff;strokeWidth=1.5;" parent="zQZGqaTvdZe9Iy5OYycm-22" vertex="1">
                        <mxGeometry y="133.72093023255815" width="229.75758317848417" height="31.395348837209305" as="geometry"/>
                    </mxCell>
                </UserObject>
                <mxCell id="zQZGqaTvdZe9Iy5OYycm-12" value="" style="group;dropTarget=0;pointerEvents=0;" parent="zQZGqaTvdZe9Iy5OYycm-7" vertex="1">
                    <mxGeometry x="200" y="100" width="914.54" height="600" as="geometry"/>
                </mxCell>
                <UserObject label="" lucidchartObjectId="LuR-6gXiOFL5" id="zQZGqaTvdZe9Iy5OYycm-13">
                    <mxCell style="html=1;overflow=block;blockSpacing=1;whiteSpace=wrap;verticalAlign=top;dashed=1;dashPattern=5 5;fontColor=#0E82B8;strokeOpacity=100;strokeColor=#147eba;container=1;pointerEvents=0;collapsible=0;recursiveResize=0;fontSize=13;align=center;spacing=0;fillOpacity=0;fillColor=#000000;strokeWidth=1.5;" parent="zQZGqaTvdZe9Iy5OYycm-12" vertex="1">
                        <mxGeometry x="103.61783251231527" width="810.9221674876846" height="600" as="geometry"/>
                    </mxCell>
                </UserObject>
                <UserObject label="Security Group" lucidchartObjectId="d.S-8giytdJA" id="zQZGqaTvdZe9Iy5OYycm-1">
                    <mxCell style="html=1;overflow=block;blockSpacing=1;whiteSpace=wrap;verticalAlign=top;container=1;pointerEvents=0;collapsible=0;recursiveResize=0;fontSize=13;fontColor=#dd3522;spacing=0;strokeColor=#dd3522;strokeOpacity=100;fillOpacity=0;rounded=1;absoluteArcSize=1;arcSize=9;fillColor=#ffffff;strokeWidth=2.3;" parent="zQZGqaTvdZe9Iy5OYycm-13" vertex="1">
                        <mxGeometry x="510" y="60" width="210.82" height="160" as="geometry"/>
                    </mxCell>
                </UserObject>
                <UserObject label="Public Subnet 1" lucidchartObjectId="LuR-Xy81THU6" id="21">
                    <mxCell style="html=1;overflow=block;blockSpacing=1;whiteSpace=wrap;shape=mxgraph.aws4.group;grIcon=mxgraph.aws4.group_security_group;grStroke=0;verticalAlign=top;align=left;grIconSize=40;spacingLeft=45;spacingTop=5;strokeColor=#2C8723;fontColor=#2C8723;fillOpacity=13;fillColor=#248814;container=1;pointerEvents=0;collapsible=0;recursiveResize=0;fontSize=13.3;spacing=0;strokeOpacity=0;strokeWidth=1.5;" parent="zQZGqaTvdZe9Iy5OYycm-13" vertex="1">
                        <mxGeometry y="-9.44" width="310.54" height="289.44" as="geometry"/>
                    </mxCell>
                </UserObject>
                <UserObject label="10.0.0.0/24" lucidchartObjectId="dBT-.tcLRFno" id="22">
                    <mxCell style="html=1;overflow=block;blockSpacing=1;whiteSpace=wrap;fontSize=13;spacing=3.8;strokeOpacity=100;fillOpacity=100;fillColor=#ffffff;strokeWidth=0.8;strokeColor=none;" parent="21" vertex="1">
                        <mxGeometry x="0.006322529683830684" y="219.76744186046514" width="106.07799802766624" height="39.53488372093023" as="geometry"/>
                    </mxCell>
                </UserObject>
                <mxCell id="30" value="Auto Scaling group" style="points=[[0,0],[0.25,0],[0.5,0],[0.75,0],[1,0],[1,0.25],[1,0.5],[1,0.75],[1,1],[0.75,1],[0.5,1],[0.25,1],[0,1],[0,0.75],[0,0.5],[0,0.25]];outlineConnect=0;gradientColor=none;html=1;whiteSpace=wrap;fontSize=12;fontStyle=0;container=1;pointerEvents=0;collapsible=0;recursiveResize=0;shape=mxgraph.aws4.groupCenter;grIcon=mxgraph.aws4.group_auto_scaling_group;grStroke=1;strokeColor=#D86613;fillColor=none;verticalAlign=top;align=center;fontColor=#D86613;dashed=1;spacingTop=25;" parent="zQZGqaTvdZe9Iy5OYycm-13" vertex="1">
                    <mxGeometry x="490" y="-10" width="310" height="580" as="geometry"/>
                </mxCell>
                <UserObject label="Availability Zone A" lucidchartObjectId="LuR-p6-e6cwh" id="zQZGqaTvdZe9Iy5OYycm-14">
                    <mxCell style="html=1;overflow=block;blockSpacing=1;whiteSpace=wrap;fontSize=13.3;fontColor=#666666;fontStyle=1;align=center;spacing=3.8;verticalAlign=bottom;strokeOpacity=0;fillOpacity=0;rotation=-90;fillColor=#ffffff;strokeWidth=1.5;" parent="zQZGqaTvdZe9Iy5OYycm-12" vertex="1">
                        <mxGeometry y="115" width="232.46435467980288" height="27" as="geometry"/>
                    </mxCell>
                </UserObject>
                <UserObject label="Security Group" lucidchartObjectId="d.S-8giytdJA" id="4">
                    <mxCell style="html=1;overflow=block;blockSpacing=1;whiteSpace=wrap;verticalAlign=top;container=1;pointerEvents=0;collapsible=0;recursiveResize=0;fontSize=13;fontColor=#dd3522;spacing=0;strokeColor=#dd3522;strokeOpacity=100;fillOpacity=0;rounded=1;absoluteArcSize=1;arcSize=9;fillColor=#ffffff;strokeWidth=2.3;" parent="zQZGqaTvdZe9Iy5OYycm-7" vertex="1">
                        <mxGeometry x="833.3732876935616" y="464.00441860465116" width="218.18065069274653" height="208.72093023255815" as="geometry"/>
                    </mxCell>
                </UserObject>
                <UserObject label="Public Subnet 2" lucidchartObjectId="LuR-Xy81THU6" id="15">
                    <mxCell style="html=1;overflow=block;blockSpacing=1;whiteSpace=wrap;shape=mxgraph.aws4.group;grIcon=mxgraph.aws4.group_security_group;grStroke=0;verticalAlign=top;align=left;grIconSize=40;spacingLeft=45;spacingTop=5;strokeColor=#2C8723;fontColor=#2C8723;fillOpacity=13;fillColor=#248814;container=1;pointerEvents=0;collapsible=0;recursiveResize=0;fontSize=13.3;spacing=0;strokeOpacity=0;strokeWidth=1.5;" parent="zQZGqaTvdZe9Iy5OYycm-7" vertex="1">
                        <mxGeometry x="309" y="380" width="286.77" height="317.44" as="geometry"/>
                    </mxCell>
                </UserObject>
                <UserObject label="10.0.2.0/24" lucidchartObjectId="dBT-.tcLRFno" id="28">
                    <mxCell style="html=1;overflow=block;blockSpacing=1;whiteSpace=wrap;fontSize=13;spacing=3.8;strokeOpacity=100;fillOpacity=100;fillColor=#ffffff;strokeWidth=0.8;strokeColor=none;" parent="zQZGqaTvdZe9Iy5OYycm-7" vertex="1">
                        <mxGeometry x="778.9990581366177" y="318.4674418604651" width="106.07799802766624" height="39.53488372093023" as="geometry"/>
                    </mxCell>
                </UserObject>
                <UserObject label="10.0.3.0/24" lucidchartObjectId="dBT-.tcLRFno" id="29">
                    <mxCell style="html=1;overflow=block;blockSpacing=1;whiteSpace=wrap;fontSize=13;spacing=3.8;strokeOpacity=100;fillOpacity=100;fillColor=#ffffff;strokeWidth=0.8;strokeColor=none;" parent="zQZGqaTvdZe9Iy5OYycm-7" vertex="1">
                        <mxGeometry x="778.9990581366177" y="657.907441860465" width="106.07799802766624" height="39.53488372093023" as="geometry"/>
                    </mxCell>
                </UserObject>
                <UserObject label="Amazon EC2" lucidchartObjectId="gaS-FAgdg23W" id="zQZGqaTvdZe9Iy5OYycm-25">
                    <mxCell style="html=1;overflow=block;blockSpacing=1;whiteSpace=wrap;shape=mxgraph.aws4.resourceIcon;resIcon=mxgraph.aws4.ec2;verticalLabelPosition=bottom;align=center;verticalAlign=top;strokeColor=#ffffff;pointerEvents=1;fontSize=16.7;fontFamily=Lucid JP;fontColor=#333333;spacing=0;strokeOpacity=100;rounded=1;absoluteArcSize=1;arcSize=9;fillColor=#d86613;strokeWidth=2.3;" parent="zQZGqaTvdZe9Iy5OYycm-7" vertex="1">
                        <mxGeometry x="879" y="189" width="90" height="90" as="geometry"/>
                    </mxCell>
                </UserObject>
                <UserObject label="Amazon EC2" lucidchartObjectId="gaS-FAgdg23W" id="5">
                    <mxCell style="html=1;overflow=block;blockSpacing=1;whiteSpace=wrap;shape=mxgraph.aws4.resourceIcon;resIcon=mxgraph.aws4.ec2;verticalLabelPosition=bottom;align=center;verticalAlign=top;strokeColor=#ffffff;pointerEvents=1;fontSize=16.7;fontFamily=Lucid JP;fontColor=#333333;spacing=0;strokeOpacity=100;rounded=1;absoluteArcSize=1;arcSize=9;fillColor=#d86613;strokeWidth=2.3;" parent="zQZGqaTvdZe9Iy5OYycm-7" vertex="1">
                        <mxGeometry x="897.46" y="510" width="90" height="90" as="geometry"/>
                    </mxCell>
                </UserObject>
                <UserObject label="Security Group" lucidchartObjectId="d.S-8giytdJA" id="53">
                    <mxCell style="html=1;overflow=block;blockSpacing=1;whiteSpace=wrap;verticalAlign=top;container=1;pointerEvents=0;collapsible=0;recursiveResize=0;fontSize=13;fontColor=#dd3522;spacing=0;strokeColor=#dd3522;strokeOpacity=100;fillOpacity=0;rounded=1;absoluteArcSize=1;arcSize=9;fillColor=#ffffff;strokeWidth=2.3;" vertex="1" parent="zQZGqaTvdZe9Iy5OYycm-7">
                        <mxGeometry x="388.9978325123153" y="270" width="210.82" height="160" as="geometry"/>
                    </mxCell>
                </UserObject>
                <mxCell id="54" value="" style="shape=table;html=1;whiteSpace=wrap;startSize=0;container=1;collapsible=0;childLayout=tableLayout;" vertex="1" parent="zQZGqaTvdZe9Iy5OYycm-7">
                    <mxGeometry x="416" y="160" width="230" height="100" as="geometry"/>
                </mxCell>
                <mxCell id="55" value="" style="shape=partialRectangle;html=1;whiteSpace=wrap;collapsible=0;dropTarget=0;pointerEvents=0;fillColor=none;top=0;left=0;bottom=0;right=0;points=[[0,0.5],[1,0.5]];portConstraint=eastwest;" vertex="1" parent="54">
                    <mxGeometry width="230" height="30" as="geometry"/>
                </mxCell>
                <mxCell id="56" value="タイプ" style="shape=partialRectangle;html=1;whiteSpace=wrap;connectable=0;fillColor=#CCFFCC;top=0;left=0;bottom=0;right=0;overflow=hidden;pointerEvents=1;" vertex="1" parent="55">
                    <mxGeometry width="77" height="30" as="geometry">
                        <mxRectangle width="77" height="30" as="alternateBounds"/>
                    </mxGeometry>
                </mxCell>
                <mxCell id="57" value="ポート" style="shape=partialRectangle;html=1;whiteSpace=wrap;connectable=0;fillColor=#CCFFCC;top=0;left=0;bottom=0;right=0;overflow=hidden;pointerEvents=1;" vertex="1" parent="55">
                    <mxGeometry x="77" width="76" height="30" as="geometry">
                        <mxRectangle width="76" height="30" as="alternateBounds"/>
                    </mxGeometry>
                </mxCell>
                <mxCell id="58" value="　ソース" style="shape=partialRectangle;html=1;whiteSpace=wrap;connectable=0;fillColor=#CCFFCC;top=0;left=0;bottom=0;right=0;overflow=hidden;pointerEvents=1;" vertex="1" parent="55">
                    <mxGeometry x="153" width="77" height="30" as="geometry">
                        <mxRectangle width="77" height="30" as="alternateBounds"/>
                    </mxGeometry>
                </mxCell>
                <mxCell id="59" value="" style="shape=partialRectangle;html=1;whiteSpace=wrap;collapsible=0;dropTarget=0;pointerEvents=0;fillColor=none;top=0;left=0;bottom=0;right=0;points=[[0,0.5],[1,0.5]];portConstraint=eastwest;" vertex="1" parent="54">
                    <mxGeometry y="30" width="230" height="40" as="geometry"/>
                </mxCell>
                <mxCell id="60" value="HTTP" style="shape=partialRectangle;html=1;whiteSpace=wrap;connectable=0;fillColor=none;top=0;left=0;bottom=0;right=0;overflow=hidden;pointerEvents=1;" vertex="1" parent="59">
                    <mxGeometry width="77" height="40" as="geometry">
                        <mxRectangle width="77" height="40" as="alternateBounds"/>
                    </mxGeometry>
                </mxCell>
                <mxCell id="61" value="80" style="shape=partialRectangle;html=1;whiteSpace=wrap;connectable=0;fillColor=none;top=0;left=0;bottom=0;right=0;overflow=hidden;pointerEvents=1;" vertex="1" parent="59">
                    <mxGeometry x="77" width="76" height="40" as="geometry">
                        <mxRectangle width="76" height="40" as="alternateBounds"/>
                    </mxGeometry>
                </mxCell>
                <mxCell id="62" value="0.0.0.0/0" style="shape=partialRectangle;html=1;whiteSpace=wrap;connectable=0;fillColor=none;top=0;left=0;bottom=0;right=0;overflow=hidden;pointerEvents=1;" vertex="1" parent="59">
                    <mxGeometry x="153" width="77" height="40" as="geometry">
                        <mxRectangle width="77" height="40" as="alternateBounds"/>
                    </mxGeometry>
                </mxCell>
                <mxCell id="63" value="" style="shape=partialRectangle;html=1;whiteSpace=wrap;collapsible=0;dropTarget=0;pointerEvents=0;fillColor=none;top=0;left=0;bottom=0;right=0;points=[[0,0.5],[1,0.5]];portConstraint=eastwest;" vertex="1" parent="54">
                    <mxGeometry y="70" width="230" height="30" as="geometry"/>
                </mxCell>
                <mxCell id="64" value="SSH" style="shape=partialRectangle;html=1;whiteSpace=wrap;connectable=0;fillColor=none;top=0;left=0;bottom=0;right=0;overflow=hidden;pointerEvents=1;" vertex="1" parent="63">
                    <mxGeometry width="77" height="30" as="geometry">
                        <mxRectangle width="77" height="30" as="alternateBounds"/>
                    </mxGeometry>
                </mxCell>
                <mxCell id="65" value="22" style="shape=partialRectangle;html=1;whiteSpace=wrap;connectable=0;fillColor=none;top=0;left=0;bottom=0;right=0;overflow=hidden;pointerEvents=1;" vertex="1" parent="63">
                    <mxGeometry x="77" width="76" height="30" as="geometry">
                        <mxRectangle width="76" height="30" as="alternateBounds"/>
                    </mxGeometry>
                </mxCell>
                <mxCell id="66" value="instace IP" style="shape=partialRectangle;html=1;whiteSpace=wrap;connectable=0;fillColor=none;top=0;left=0;bottom=0;right=0;overflow=hidden;pointerEvents=1;" vertex="1" parent="63">
                    <mxGeometry x="153" width="77" height="30" as="geometry">
                        <mxRectangle width="77" height="30" as="alternateBounds"/>
                    </mxGeometry>
                </mxCell>
                <UserObject label="Internet gateway" lucidchartObjectId="X7S-EDn-ZCxY" id="zQZGqaTvdZe9Iy5OYycm-27">
                    <mxCell style="html=1;overflow=block;blockSpacing=1;whiteSpace=wrap;shape=mxgraph.aws4.internet_gateway;labelPosition=center;verticalLabelPosition=bottom;align=center;verticalAlign=top;pointerEvents=1;fontSize=16.7;fontFamily=Lucid JP;fontColor=#333333;spacing=0;strokeColor=#5e5e5e;strokeOpacity=100;rounded=1;absoluteArcSize=1;arcSize=9;fillColor=#693cc5;strokeWidth=2.3;" parent="zQZGqaTvdZe9Iy5OYycm-7" vertex="1">
                        <mxGeometry x="180" y="331.5" width="60" height="60" as="geometry"/>
                    </mxCell>
                </UserObject>
                <mxCell id="19" style="edgeStyle=none;html=1;entryX=0;entryY=0.5;entryDx=0;entryDy=0;entryPerimeter=0;" parent="zQZGqaTvdZe9Iy5OYycm-7" source="zQZGqaTvdZe9Iy5OYycm-27" target="6" edge="1">
                    <mxGeometry relative="1" as="geometry"/>
                </mxCell>
                <mxCell id="72" style="edgeStyle=none;html=1;entryX=-0.075;entryY=0.669;entryDx=0;entryDy=0;entryPerimeter=0;" edge="1" parent="zQZGqaTvdZe9Iy5OYycm-7" source="68" target="zQZGqaTvdZe9Iy5OYycm-27">
                    <mxGeometry relative="1" as="geometry"/>
                </mxCell>
                <mxCell id="68" value="" style="sketch=0;points=[[0,0,0],[0.25,0,0],[0.5,0,0],[0.75,0,0],[1,0,0],[0,1,0],[0.25,1,0],[0.5,1,0],[0.75,1,0],[1,1,0],[0,0.25,0],[0,0.5,0],[0,0.75,0],[1,0.25,0],[1,0.5,0],[1,0.75,0]];outlineConnect=0;fontColor=#232F3E;gradientColor=#945DF2;gradientDirection=north;fillColor=#5A30B5;strokeColor=#ffffff;dashed=0;verticalLabelPosition=bottom;verticalAlign=top;align=center;html=1;fontSize=12;fontStyle=0;aspect=fixed;shape=mxgraph.aws4.resourceIcon;resIcon=mxgraph.aws4.route_53;" vertex="1" parent="zQZGqaTvdZe9Iy5OYycm-7">
                    <mxGeometry x="50" y="331.5" width="78" height="78" as="geometry"/>
                </mxCell>
                <UserObject label="10.0.1.0/24" lucidchartObjectId="dBT-.tcLRFno" id="zQZGqaTvdZe9Iy5OYycm-34">
                    <mxCell style="html=1;overflow=block;blockSpacing=1;whiteSpace=wrap;fontSize=13;spacing=3.8;strokeOpacity=100;fillOpacity=100;fillColor=#ffffff;strokeWidth=0.8;strokeColor=none;" parent="zQZGqaTvdZe9Iy5OYycm-7" vertex="1">
                        <mxGeometry x="318.0458385955991" y="639.9974418604652" width="97.95865949470253" height="39.53488372093023" as="geometry"/>
                    </mxCell>
                </UserObject>
                <mxCell id="zQZGqaTvdZe9Iy5OYycm-8" value="" style="group;dropTarget=0;pointerEvents=0;" parent="1" vertex="1">
                    <mxGeometry x="340" y="60" width="640" height="45" as="geometry"/>
                </mxCell>
                <UserObject label="ELB構成" lucidchartObjectId="LuR-k2C7G9.U" id="zQZGqaTvdZe9Iy5OYycm-9">
                    <mxCell style="points=[[0.262,0.967,0],[0.742,0.967,0]];html=1;overflow=block;blockSpacing=1;whiteSpace=wrap;fontSize=19.7;fontColor=#b2b2b2;fontStyle=1;align=center;spacingLeft=7;spacingRight=7;spacingTop=2;spacing=3;strokeOpacity=0;fillOpacity=0;rounded=1;absoluteArcSize=1;arcSize=12;fillColor=#ffffff;strokeWidth=1.5;" parent="zQZGqaTvdZe9Iy5OYycm-8" vertex="1">
                        <mxGeometry width="640" height="31" as="geometry"/>
                    </mxCell>
                </UserObject>
                <UserObject label="%creatorName%  |  %date{mmmm d, yyyy}%" placeholders="1" lucidchartObjectId="LuR-t7FvLVTg" id="zQZGqaTvdZe9Iy5OYycm-10">
                    <mxCell style="html=1;overflow=block;blockSpacing=1;whiteSpace=wrap;fontSize=11.5;fontColor=#b2b2b2;align=center;spacingLeft=7;spacingRight=7;spacingTop=2;spacing=3;strokeOpacity=0;fillOpacity=0;rounded=1;absoluteArcSize=1;arcSize=12;fillColor=#ffffff;strokeWidth=1.5;" parent="zQZGqaTvdZe9Iy5OYycm-8" vertex="1">
                        <mxGeometry y="31" width="640" height="14" as="geometry"/>
                    </mxCell>
                </UserObject>
                <UserObject label="" lucidchartObjectId="LuR-H_M8iPB2" id="zQZGqaTvdZe9Iy5OYycm-11">
                    <mxCell style="html=1;jettySize=18;whiteSpace=wrap;fontSize=13;fontFamily=Helvetica;strokeColor=#b2b2b2;strokeOpacity=100;strokeWidth=1.5;rounded=0;startArrow=none;endArrow=none;exitX=0.262;exitY=0.967;exitPerimeter=0;entryX=0.742;entryY=0.967;entryPerimeter=0;" parent="zQZGqaTvdZe9Iy5OYycm-8" source="zQZGqaTvdZe9Iy5OYycm-9" target="zQZGqaTvdZe9Iy5OYycm-9" edge="1">
                        <mxGeometry width="100" height="100" relative="1" as="geometry">
                            <Array as="points">
                                <mxPoint x="168" y="50" generated="1"/>
                                <mxPoint x="475" y="50" generated="1"/>
                            </Array>
                        </mxGeometry>
                    </mxCell>
                </UserObject>
                <UserObject label="RDSではAZが別のサブネットを二つ用意する必要がある" lucidchartObjectId="mbT-6RMTp-nP" id="zQZGqaTvdZe9Iy5OYycm-29">
                    <mxCell style="html=1;overflow=block;blockSpacing=1;whiteSpace=wrap;fontSize=13;spacing=3.8;strokeOpacity=100;fillOpacity=100;fillColor=#ffffff;strokeWidth=0.8;strokeColor=none;" parent="1" vertex="1">
                        <mxGeometry x="1" y="30" width="339" height="45" as="geometry"/>
                    </mxCell>
                </UserObject>
                <mxCell id="34" style="edgeStyle=elbowEdgeStyle;html=1;entryX=0;entryY=0.4;entryDx=0;entryDy=0;entryPerimeter=0;" parent="1" source="zQZGqaTvdZe9Iy5OYycm-25" edge="1">
                    <mxGeometry relative="1" as="geometry">
                        <mxPoint x="1530" y="527.0000000000002" as="targetPoint"/>
                    </mxGeometry>
                </mxCell>
                <mxCell id="35" style="edgeStyle=elbowEdgeStyle;html=1;entryX=-0.025;entryY=0.382;entryDx=0;entryDy=0;entryPerimeter=0;" parent="1" source="5" edge="1">
                    <mxGeometry relative="1" as="geometry">
                        <mxPoint x="1528" y="525.0200000000002" as="targetPoint"/>
                    </mxGeometry>
                </mxCell>
                <mxCell id="38" style="edgeStyle=none;html=1;entryX=0.5;entryY=0;entryDx=0;entryDy=0;entryPerimeter=0;" edge="1" parent="1" source="36" target="37">
                    <mxGeometry relative="1" as="geometry"/>
                </mxCell>
                <mxCell id="36" value="" style="sketch=0;points=[[0,0,0],[0.25,0,0],[0.5,0,0],[0.75,0,0],[1,0,0],[0,1,0],[0.25,1,0],[0.5,1,0],[0.75,1,0],[1,1,0],[0,0.25,0],[0,0.5,0],[0,0.75,0],[1,0.25,0],[1,0.5,0],[1,0.75,0]];outlineConnect=0;fontColor=#232F3E;gradientColor=#FF4F8B;gradientDirection=north;fillColor=#BC1356;strokeColor=#ffffff;dashed=0;verticalLabelPosition=bottom;verticalAlign=top;align=center;html=1;fontSize=12;fontStyle=0;aspect=fixed;shape=mxgraph.aws4.resourceIcon;resIcon=mxgraph.aws4.sqs;" vertex="1" parent="1">
                    <mxGeometry x="1540" y="492" width="78" height="78" as="geometry"/>
                </mxCell>
                <mxCell id="37" value="" style="sketch=0;points=[[0,0,0],[0.25,0,0],[0.5,0,0],[0.75,0,0],[1,0,0],[0,1,0],[0.25,1,0],[0.5,1,0],[0.75,1,0],[1,1,0],[0,0.25,0],[0,0.5,0],[0,0.75,0],[1,0.25,0],[1,0.5,0],[1,0.75,0]];outlineConnect=0;fontColor=#232F3E;gradientColor=#60A337;gradientDirection=north;fillColor=#277116;strokeColor=#ffffff;dashed=0;verticalLabelPosition=bottom;verticalAlign=top;align=center;html=1;fontSize=12;fontStyle=0;aspect=fixed;shape=mxgraph.aws4.resourceIcon;resIcon=mxgraph.aws4.s3;" vertex="1" parent="1">
                    <mxGeometry x="1540" y="700" width="78" height="78" as="geometry"/>
                </mxCell>
            </root>
        </mxGraphModel>
    </diagram>
</mxfile>